<?xml version="1.0" standalone="no"?>
<!DOCTYPE svg PUBLIC "-//W3C//DTD SVG 20010904//EN"
 "http://www.w3.org/TR/2001/REC-SVG-20010904/DTD/svg10.dtd">
<svg version="1.0" xmlns="http://www.w3.org/2000/svg"
 width="300.000000pt" height="300.000000pt" viewBox="0 0 300.000000 300.000000"
 preserveAspectRatio="xMidYMid meet">
<metadata>
Created by potrace 1.10, written by Peter Selinger 2001-2011
</metadata>
<g transform="translate(0.000000,300.000000) scale(0.100000,-0.100000)"
fill="#000000" stroke="none">
<path d="M1220 1805 l-34 -35 -28 27 -28 27 0 -55 c0 -53 -2 -56 -55 -109
l-55 -54 0 -223 c0 -142 4 -223 10 -223 6 0 10 81 10 223 l0 223 45 44 45 44
0 -272 0 -272 185 0 185 0 0 227 0 228 -117 117 c-65 65 -120 118 -123 118 -4
0 -21 -16 -40 -35z m157 -97 l113 -113 0 -212 0 -213 -85 0 -84 0 -3 78 -3 77
-52 3 -53 3 0 -80 0 -81 -35 0 -35 0 0 267 c0 261 0 267 22 290 l22 24 88 -88
88 -88 0 -97 c0 -59 4 -98 10 -98 6 0 10 39 10 97 l0 98 -92 92 -92 93 29 30
c16 16 31 30 34 30 3 0 56 -51 118 -112z m-220 35 c-16 -16 -17 -15 -17 17 0
32 1 33 17 17 16 -16 16 -18 0 -34z m143 -480 c0 -27 3 -58 6 -69 5 -20 1 -22
-40 -25 l-46 -4 0 72 0 73 40 0 40 0 0 -47z"/>
<path d="M10 1430 c0 -5 5 -10 10 -10 6 0 10 -38 10 -95 0 -57 -4 -95 -10 -95
-5 0 -10 -5 -10 -11 0 -8 23 -10 70 -7 87 5 119 30 127 99 7 61 -10 97 -52
114 -39 17 -145 20 -145 5z m135 -35 c53 -52 19 -165 -50 -165 l-25 0 0 95 0
95 25 0 c14 0 37 -11 50 -25z"/>
<path d="M2070 1398 c0 -6 -7 -20 -17 -30 -9 -11 -11 -18 -5 -18 8 0 12 -21
12 -59 0 -64 13 -85 51 -79 24 3 48 33 36 44 -4 4 -13 -1 -21 -11 -21 -29 -36
-8 -36 50 0 50 2 55 21 52 12 -1 24 4 27 12 3 10 -2 12 -22 7 -23 -6 -26 -3
-26 19 0 14 -4 25 -10 25 -5 0 -10 -5 -10 -12z"/>
<path d="M2810 1390 c0 -11 -7 -20 -15 -20 -8 0 -15 -4 -15 -10 0 -5 5 -10 10
-10 6 0 10 -26 10 -58 0 -32 5 -63 12 -70 26 -26 78 -7 78 28 -1 13 -3 12 -14
-2 -28 -38 -46 -15 -46 59 0 43 1 45 25 39 19 -5 25 -2 25 9 0 11 -7 15 -22
13 -19 -2 -23 1 -21 20 2 14 -3 22 -12 22 -8 0 -15 -9 -15 -20z"/>
<path d="M248 1363 c-19 -5 -25 -23 -8 -23 6 0 10 -25 10 -55 0 -30 -4 -55
-10 -55 -5 0 -10 -4 -10 -10 0 -5 20 -10 45 -10 46 0 61 14 25 23 -16 4 -20
14 -20 50 0 49 12 66 35 47 16 -14 35 -5 35 16 0 20 -24 28 -49 14 -14 -7 -21
-7 -21 0 0 10 -3 11 -32 3z"/>
<path d="M385 1345 c-32 -31 -34 -86 -5 -115 24 -24 82 -27 100 -5 16 19 5 34
-12 17 -18 -18 -56 -14 -68 7 -15 30 -14 31 46 31 l57 0 -7 33 c-12 59 -68 76
-111 32z m73 -23 c3 -19 -1 -22 -32 -22 -29 0 -34 3 -29 18 14 38 56 41 61 4z"/>
<path d="M549 1351 c-18 -15 -21 -22 -12 -31 14 -15 33 -5 33 16 0 10 8 14 23
12 36 -5 26 -28 -23 -51 -47 -23 -60 -48 -40 -72 15 -18 61 -19 79 -2 11 10
14 10 18 0 3 -7 13 -13 23 -13 21 0 46 27 35 38 -4 4 -10 1 -12 -5 -11 -31
-23 -9 -23 41 0 82 -46 112 -101 67z m61 -100 c-15 -29 -52 -28 -48 1 4 28 51
56 56 33 2 -8 -2 -23 -8 -34z"/>
<path d="M708 1363 c-19 -5 -25 -23 -8 -23 6 0 10 -25 10 -55 0 -30 -4 -55
-10 -55 -5 0 -10 -4 -10 -10 0 -5 18 -10 40 -10 22 0 40 5 40 10 0 6 -7 10
-16 10 -12 0 -14 10 -12 53 3 48 5 52 31 55 17 2 27 -1 28 -10 0 -7 1 -30 3
-51 2 -26 -2 -41 -10 -44 -28 -10 -13 -23 26 -23 22 0 40 5 40 10 0 6 -4 10
-10 10 -5 0 -10 25 -10 56 0 54 0 55 28 52 25 -3 27 -7 30 -55 2 -32 -1 -53
-7 -53 -6 0 -11 -4 -11 -10 0 -5 16 -10 35 -10 19 0 35 5 35 10 0 6 -4 10 -10
10 -6 0 -10 27 -10 60 0 50 -3 61 -21 70 -15 9 -28 9 -49 0 -22 -9 -32 -9 -48
1 -16 10 -26 10 -46 1 -16 -7 -26 -8 -26 -2 0 10 -3 11 -32 3z"/>
<path d="M1578 1363 c-19 -5 -25 -23 -8 -23 6 0 10 -37 10 -90 0 -53 -4 -90
-10 -90 -5 0 -10 -4 -10 -10 0 -5 20 -10 45 -10 46 0 61 14 25 23 -13 3 -20
14 -20 30 0 23 3 25 38 20 56 -7 79 26 74 104 -1 13 -14 30 -28 40 -21 13 -32
15 -55 6 -16 -6 -29 -7 -29 -2 0 9 -4 10 -32 2z m102 -32 c14 -26 13 -74 -2
-89 -20 -20 -48 -14 -59 14 -22 59 33 127 61 75z"/>
<path d="M1778 1359 c-22 -12 -24 -49 -3 -49 9 0 15 9 15 21 0 15 5 20 22 17
38 -5 31 -31 -15 -53 -32 -15 -43 -26 -45 -47 -3 -22 2 -29 23 -34 15 -4 37
-2 50 4 14 6 27 7 30 3 7 -12 145 -13 145 -1 0 6 -7 10 -15 10 -12 0 -15 13
-15 55 0 56 6 65 28 43 16 -16 37 4 29 26 -7 18 -33 21 -42 6 -5 -8 -11 -8
-19 -1 -13 11 -56 4 -56 -9 0 -4 7 -10 15 -14 18 -7 21 -91 3 -102 -6 -4 -14
-2 -16 5 -3 9 -7 9 -18 0 -16 -13 -17 -10 -14 48 2 66 -50 103 -102 72z m52
-115 c-14 -16 -36 -19 -44 -5 -10 15 4 38 27 48 18 9 23 7 25 -9 2 -10 -2 -26
-8 -34z"/>
<path d="M2178 1363 c-19 -5 -25 -23 -8 -23 6 0 10 -25 10 -55 0 -30 -4 -55
-10 -55 -5 0 -10 -4 -10 -10 0 -5 18 -10 40 -10 39 0 54 13 27 23 -8 3 -12 23
-12 53 0 48 1 49 30 49 29 0 30 -2 33 -52 2 -32 -1 -53 -7 -53 -6 0 -11 -4
-11 -10 0 -5 16 -10 35 -10 19 0 35 5 35 10 0 6 -5 10 -11 10 -6 0 -9 21 -7
53 3 48 5 52 31 55 27 3 27 2 27 -52 0 -31 -4 -56 -10 -56 -5 0 -10 -4 -10
-10 0 -5 19 -10 42 -10 39 0 40 1 25 18 -11 12 -17 36 -17 69 0 66 -17 82 -66
64 -28 -10 -38 -10 -50 0 -11 9 -20 9 -42 0 -18 -9 -28 -9 -30 -2 -4 11 -6 12
-34 4z"/>
<path d="M2465 1345 c-31 -30 -32 -73 -4 -109 26 -33 77 -36 104 -6 20 22 6
27 -25 8 -23 -15 -53 -2 -58 26 -3 13 6 16 47 16 48 0 51 2 51 25 0 32 -33 65
-65 65 -14 0 -37 -11 -50 -25z m75 -14 c15 -29 13 -31 -25 -31 -36 0 -46 15
-23 38 18 18 36 15 48 -7z"/>
<path d="M2618 1363 c-19 -5 -25 -23 -8 -23 6 0 10 -25 10 -55 0 -30 -4 -55
-10 -55 -5 0 -10 -4 -10 -10 0 -5 18 -10 40 -10 22 0 40 5 40 10 0 6 -7 10
-16 10 -12 0 -14 10 -12 53 3 50 4 52 33 52 29 0 30 -2 33 -52 2 -32 -1 -53
-7 -53 -6 0 -11 -4 -11 -10 0 -5 16 -10 35 -10 19 0 35 5 35 10 0 6 -4 10 -10
10 -5 0 -10 24 -10 54 0 75 -30 103 -81 76 -13 -7 -19 -7 -19 0 0 10 -3 11
-32 3z"/>
</g>
</svg>
